<svg width="512" height="512" viewBox="0 0 512 512" fill="none" xmlns="http://www.w3.org/2000/svg">
  <defs>
    <linearGradient id="bgGradient" x1="82" y1="58" x2="430" y2="454" gradientUnits="userSpaceOnUse">
      <stop offset="0" stop-color="#1D4ED8"/>
      <stop offset="1" stop-color="#9333EA"/>
    </linearGradient>
    <linearGradient id="arcGradient" x1="256" y1="120" x2="256" y2="400" gradientUnits="userSpaceOnUse">
      <stop offset="0" stop-color="#F8FAFC" stop-opacity="0.85"/>
      <stop offset="1" stop-color="#F8FAFC" stop-opacity="0.2"/>
    </linearGradient>
    <linearGradient id="barGradient" x1="0" y1="0" x2="0" y2="120" gradientUnits="userSpaceOnUse">
      <stop offset="0" stop-color="#FACC15"/>
      <stop offset="1" stop-color="#FB923C"/>
    </linearGradient>
    <filter id="shadow" x="-30" y="-30" width="572" height="572" color-interpolation-filters="sRGB">
      <feDropShadow dx="0" dy="20" stdDeviation="24" flood-color="#0F172A" flood-opacity="0.35"/>
    </filter>
  </defs>

  <rect width="512" height="512" rx="128" fill="url(#bgGradient)"/>

  <g filter="url(#shadow)">
    <circle cx="256" cy="256" r="156" fill="#0F172A" fill-opacity="0.2" stroke="#F8FAFC" stroke-opacity="0.18" stroke-width="6"/>
    <path d="M164 348c44 36 140 36 184 0" stroke="url(#arcGradient)" stroke-width="22" stroke-linecap="round"/>
    <path d="M164 310c44 36 140 36 184 0" stroke="url(#arcGradient)" stroke-width="18" stroke-linecap="round" stroke-opacity="0.6"/>
    <path d="M164 272c44 36 140 36 184 0" stroke="url(#arcGradient)" stroke-width="14" stroke-linecap="round" stroke-opacity="0.4"/>
  </g>

  <g transform="translate(156 168)">
    <rect x="8" y="96" width="28" height="120" rx="14" fill="url(#barGradient)"/>
    <rect x="64" y="52" width="28" height="164" rx="14" fill="url(#barGradient)" opacity="0.85"/>
    <rect x="120" y="20" width="28" height="196" rx="14" fill="url(#barGradient)" opacity="0.75"/>
    <rect x="176" y="0" width="28" height="216" rx="14" fill="url(#barGradient)" opacity="0.65"/>
  </g>

  <path d="M214 172c0-10 8-18 18-18h48c10 0 18 8 18 18v26c0 22-12 42-31 53l-29 17c-4 2-6 6-6 10v14c0 10-8 18-18 18s-18-8-18-18v-16c0-22 12-42 31-53l29-17c4-2 6-6 6-10v-24h-30c-10 0-18-8-18-18z" fill="#F8FAFC" fill-opacity="0.92"/>
</svg>

